HIERARCHY
ROOT Hips
{
  OFFSET -258.997 75.5694 1585.9
  CHANNELS 6 Xposition Yposition Zposition Zrotation Xrotation Yrotation
  JOINT Spine
  {
    OFFSET 0 8 0
    CHANNELS 6 Xposition Yposition Zposition Zrotation Xrotation Yrotation
    JOINT Spine1
    {
      OFFSET 0 8 0
      CHANNELS 6 Xposition Yposition Zposition Zrotation Xrotation Yrotation
      JOINT Spine2
      {
        OFFSET 0 8 0
        CHANNELS 6 Xposition Yposition Zposition Zrotation Xrotation Yrotation
        JOINT Spine3
        {
          OFFSET 0 8 0
          CHANNELS 6 Xposition Yposition Zposition Zrotation Xrotation Yrotation
          JOINT Neck
          {
            OFFSET 0 17 0
            CHANNELS 6 Xposition Yposition Zposition Zrotation Xrotation Yrotation
            JOINT Head
            {
              OFFSET 0 10.8 0
              CHANNELS 6 Xposition Yposition Zposition Zrotation Xrotation Yrotation
              End Site
              {
                OFFSET 0 20.25 0
              }
            }
          }
          JOINT LeftShoulder
          {
            OFFSET 5 17 0
            CHANNELS 6 Xposition Yposition Zposition Zrotation Xrotation Yrotation
            JOINT LeftShoulder2
            {
              OFFSET 6.45 0 0
              CHANNELS 6 Xposition Yposition Zposition Zrotation Xrotation Yrotation
              JOINT LeftArm
              {
                OFFSET 6.45 0 0
                CHANNELS 6 Xposition Yposition Zposition Zrotation Xrotation Yrotation
                JOINT LeftForeArm
                {
                  OFFSET 0 -32.4 -2
                  CHANNELS 6 Xposition Yposition Zposition Zrotation Xrotation Yrotation
                  JOINT LeftHand
                  {
                    OFFSET 0 -25.65 2
                    CHANNELS 6 Xposition Yposition Zposition Zrotation Xrotation Yrotation
                    JOINT LeftHandThumb1
                    {
                      OFFSET -0.5 -1.5 2.65
                      CHANNELS 6 Xposition Yposition Zposition Zrotation Xrotation Yrotation
                      JOINT LeftHandThumb2
                      {
                        OFFSET 0 -3.8 3.7
                        CHANNELS 6 Xposition Yposition Zposition Zrotation Xrotation Yrotation
                        JOINT LeftHandThumb3
                        {
                          OFFSET 0 -3 2.7
                          CHANNELS 6 Xposition Yposition Zposition Zrotation Xrotation Yrotation
                          End Site
                          {
                            OFFSET 0 -2.3 1.8
                          }
                        }
                      }
                    }
                    JOINT LeftHandIndex
                    {
                      OFFSET 0 -1.9 1.6
                      CHANNELS 6 Xposition Yposition Zposition Zrotation Xrotation Yrotation
                      JOINT LeftHandIndex1
                      {
                        OFFSET 0 -8.3 1.9
                        CHANNELS 6 Xposition Yposition Zposition Zrotation Xrotation Yrotation
                        JOINT LeftHandIndex2
                        {
                          OFFSET 0 -4.5 0
                          CHANNELS 6 Xposition Yposition Zposition Zrotation Xrotation Yrotation
                          JOINT LeftHandIndex3
                          {
                            OFFSET 0 -3.4 0
                            CHANNELS 6 Xposition Yposition Zposition Zrotation Xrotation Yrotation
                            End Site
                            {
                              OFFSET 0 -2.6 0
                            }
                          }
                        }
                      }
                    }
                    JOINT LeftHandMiddle
                    {
                      OFFSET -0.25 -2.2 0.4
                      CHANNELS 6 Xposition Yposition Zposition Zrotation Xrotation Yrotation
                      JOINT LeftHandMiddle1
                      {
                        OFFSET 0 -8.3 1
                        CHANNELS 6 Xposition Yposition Zposition Zrotation Xrotation Yrotation
                        JOINT LeftHandMiddle2
                        {
                          OFFSET 0 -4.65 0
                          CHANNELS 6 Xposition Yposition Zposition Zrotation Xrotation Yrotation
                          JOINT LeftHandMiddle3
                          {
                            OFFSET 0 -3.3 0
                            CHANNELS 6 Xposition Yposition Zposition Zrotation Xrotation Yrotation
                            End Site
                            {
                              OFFSET 0 -2.7 0
                            }
                          }
                        }
                      }
                    }
                    JOINT LeftHandRing
                    {
                      OFFSET -0.5 -2.15 -0.8
                      CHANNELS 6 Xposition Yposition Zposition Zrotation Xrotation Yrotation
                      JOINT LeftHandRing1
                      {
                        OFFSET 0 -7.75 -0.2
                        CHANNELS 6 Xposition Yposition Zposition Zrotation Xrotation Yrotation
                        JOINT LeftHandRing2
                        {
                          OFFSET 0 -3.8 0
                          CHANNELS 6 Xposition Yposition Zposition Zrotation Xrotation Yrotation
                          JOINT LeftHandRing3
                          {
                            OFFSET 0 -3.4 0
                            CHANNELS 6 Xposition Yposition Zposition Zrotation Xrotation Yrotation
                            End Site
                            {
                              OFFSET 0 -2.6 0
                            }
                          }
                        }
                      }
                    }
                    JOINT LeftHandPinky
                    {
                      OFFSET -0.75 -1.75 -1.85
                      CHANNELS 6 Xposition Yposition Zposition Zrotation Xrotation Yrotation
                      JOINT LeftHandPinky1
                      {
                        OFFSET 0 -7.15 -1
                        CHANNELS 6 Xposition Yposition Zposition Zrotation Xrotation Yrotation
                        JOINT LeftHandPinky2
                        {
                          OFFSET 0 -3 0
                          CHANNELS 6 Xposition Yposition Zposition Zrotation Xrotation Yrotation
                          JOINT LeftHandPinky3
                          {
                            OFFSET 0 -2.35 0
                            CHANNELS 6 Xposition Yposition Zposition Zrotation Xrotation Yrotation
                            End Site
                            {
                              OFFSET 0 -2.1 0
                            }
                          }
                        }
                      }
                    }
                  }
                }
              }
            }
          }
          JOINT RightShoulder
          {
            OFFSET -5 17 0
            CHANNELS 6 Xposition Yposition Zposition Zrotation Xrotation Yrotation
            JOINT RightShoulder2
            {
              OFFSET -6.45 0 0
              CHANNELS 6 Xposition Yposition Zposition Zrotation Xrotation Yrotation
              JOINT RightArm
              {
                OFFSET -6.45 0 0
                CHANNELS 6 Xposition Yposition Zposition Zrotation Xrotation Yrotation
                JOINT RightForeArm
                {
                  OFFSET 0 -32.4 -2
                  CHANNELS 6 Xposition Yposition Zposition Zrotation Xrotation Yrotation
                  JOINT RightHand
                  {
                    OFFSET 0 -25.65 2
                    CHANNELS 6 Xposition Yposition Zposition Zrotation Xrotation Yrotation
                    JOINT RightHandThumb1
                    {
                      OFFSET 0.5 -1.5 2.65
                      CHANNELS 6 Xposition Yposition Zposition Zrotation Xrotation Yrotation
                      JOINT RightHandThumb2
                      {
                        OFFSET 0 -3.8 3.7
                        CHANNELS 6 Xposition Yposition Zposition Zrotation Xrotation Yrotation
                        JOINT RightHandThumb3
                        {
                          OFFSET 0 -3 2.7
                          CHANNELS 6 Xposition Yposition Zposition Zrotation Xrotation Yrotation
                          End Site
                          {
                            OFFSET 0 -2.3 1.8
                          }
                        }
                      }
                    }
                    JOINT RightHandIndex
                    {
                      OFFSET 0 -1.9 1.6
                      CHANNELS 6 Xposition Yposition Zposition Zrotation Xrotation Yrotation
                      JOINT RightHandIndex1
                      {
                        OFFSET 0 -8.3 1.9
                        CHANNELS 6 Xposition Yposition Zposition Zrotation Xrotation Yrotation
                        JOINT RightHandIndex2
                        {
                          OFFSET 0 -4.5 0
                          CHANNELS 6 Xposition Yposition Zposition Zrotation Xrotation Yrotation
                          JOINT RightHandIndex3
                          {
                            OFFSET 0 -3.4 0
                            CHANNELS 6 Xposition Yposition Zposition Zrotation Xrotation Yrotation
                            End Site
                            {
                              OFFSET 0 -2.6 0
                            }
                          }
                        }
                      }
                    }
                    JOINT RightHandMiddle
                    {
                      OFFSET 0.25 -2.2 0.4
                      CHANNELS 6 Xposition Yposition Zposition Zrotation Xrotation Yrotation
                      JOINT RightHandMiddle1
                      {
                        OFFSET 0 -8.3 1
                        CHANNELS 6 Xposition Yposition Zposition Zrotation Xrotation Yrotation
                        JOINT RightHandMiddle2
                        {
                          OFFSET 0 -4.65 0
                          CHANNELS 6 Xposition Yposition Zposition Zrotation Xrotation Yrotation
                          JOINT RightHandMiddle3
                          {
                            OFFSET 0 -3.3 0
                            CHANNELS 6 Xposition Yposition Zposition Zrotation Xrotation Yrotation
                            End Site
                            {
                              OFFSET 0 -2.7 0
                            }
                          }
                        }
                      }
                    }
                    JOINT RightHandRing
                    {
                      OFFSET 0.5 -2.15 -0.8
                      CHANNELS 6 Xposition Yposition Zposition Zrotation Xrotation Yrotation
                      JOINT RightHandRing1
                      {
                        OFFSET 0 -7.75 -0.2
                        CHANNELS 6 Xposition Yposition Zposition Zrotation Xrotation Yrotation
                        JOINT RightHandRing2
                        {
                          OFFSET 0 -3.8 0
                          CHANNELS 6 Xposition Yposition Zposition Zrotation Xrotation Yrotation
                          JOINT RightHandRing3
                          {
                            OFFSET 0 -3.4 0
                            CHANNELS 6 Xposition Yposition Zposition Zrotation Xrotation Yrotation
                            End Site
                            {
                              OFFSET 0 -2.6 0
                            }
                          }
                        }
                      }
                    }
                    JOINT RightHandPinky
                    {
                      OFFSET 0.75 -1.75 -1.85
                      CHANNELS 6 Xposition Yposition Zposition Zrotation Xrotation Yrotation
                      JOINT RightHandPinky1
                      {
                        OFFSET 0 -7.15 -1
                        CHANNELS 6 Xposition Yposition Zposition Zrotation Xrotation Yrotation
                        JOINT RightHandPinky2
                        {
                          OFFSET 0 -3 0
                          CHANNELS 6 Xposition Yposition Zposition Zrotation Xrotation Yrotation
                          JOINT RightHandPinky3
                          {
                            OFFSET 0 -2.35 0
                            CHANNELS 6 Xposition Yposition Zposition Zrotation Xrotation Yrotation
                            End Site
                            {
                              OFFSET 0 -2.1 0
                            }
                          }
                        }
                      }
                    }
                  }
                }
              }
            }
          }
        }
      }
    }
  }
  JOINT LeftUpLeg
  {
    OFFSET 8 0 0
    CHANNELS 6 Xposition Yposition Zposition Zrotation Xrotation Yrotation
    JOINT LeftLeg
    {
      OFFSET 0 -45 -1
      CHANNELS 6 Xposition Yposition Zposition Zrotation Xrotation Yrotation
      JOINT LeftFoot
      {
        OFFSET 0 -41 -2
        CHANNELS 6 Xposition Yposition Zposition Zrotation Xrotation Yrotation
        JOINT LeftToeBase
        {
          OFFSET 0 -7.5 12.5
          CHANNELS 6 Xposition Yposition Zposition Zrotation Xrotation Yrotation
          JOINT LeftFootToe
          {
            OFFSET 0 0 4
            CHANNELS 6 Xposition Yposition Zposition Zrotation Xrotation Yrotation
            End Site
            {
              OFFSET 0 0 0
            }
          }
        }
      }
    }
  }
  JOINT RightUpLeg
  {
    OFFSET -8 0 0
    CHANNELS 6 Xposition Yposition Zposition Zrotation Xrotation Yrotation
    JOINT RightLeg
    {
      OFFSET 0 -45 -1
      CHANNELS 6 Xposition Yposition Zposition Zrotation Xrotation Yrotation
      JOINT RightFoot
      {
        OFFSET 0 -41 -2
        CHANNELS 6 Xposition Yposition Zposition Zrotation Xrotation Yrotation
        JOINT RightToeBase
        {
          OFFSET 0 -7.5 12.5
          CHANNELS 6 Xposition Yposition Zposition Zrotation Xrotation Yrotation
          JOINT RightFootToe
          {
            OFFSET 0 0 4
            CHANNELS 6 Xposition Yposition Zposition Zrotation Xrotation Yrotation
            End Site
            {
              OFFSET 0 0 0
            }
          }
        }
      }
    }
  }
}
MOTION
Frames:	3
Frame Time:	0.0111111
-268.935 89.7897 1563.03 -0.0559381 -0.663012 168.883 0 8 -2.27374e-13 8.16807 23.9099 5.14529 5.68434e-14 8 0 3.5716 7.43456 2.57499 2.84217e-14 8 4.54747e-13 1.82689 3.70265 1.34487 5.68434e-14 8 2.27374e-13 1.82016 3.6919 1.34124 5.68434e-14 17 0 2.56901 -1.96691 -11.413 -5.68434e-14 10.8 0 5.33825 -5.35247 -26.7344 5 17 -2.27374e-13 2.4876 -5.17456 -3.37996 6.45 1.13687e-13 2.27374e-13 0.112107 0.510768 2.25341 6.45 1.13687e-13 2.27374e-13 57.9047 26.6932 4.82502 1.13687e-13 -32.4 -2 -141.642 -40.5768 -123.757 0 -25.65 2 20.8918 18.4863 -12.5974 -0.5 -1.5 2.65 -33.734 -62.3521 114.958 1.13687e-13 -3.8 3.7 0.868474 20.0164 0.508346 0 -3 2.7 0.101087 33.6661 0.335376 0 -1.9 1.6 6.36111e-15 -3.18055e-15 -1.27222e-14 1.13687e-13 -8.3 1.9 -1.64028 -1.96915 0.118264 -1.13687e-13 -4.5 0 -77.6913 0.00888782 -0.0478335 2.27374e-13 -3.4 0 -62.2056 0.0667711 -0.0415441 -0.25 -2.2 0.4 6.36111e-15 -3.18055e-15 -1.27222e-14 -2.27374e-13 -8.3 1 -33.3811 12.6512 6.23717 0 -4.65 0 -75.24 0.0482519 -0.0405432 -5.68434e-14 -3.3 0 -90.0002 -1.74931e-14 -1.27222e-14 -0.5 -2.15 -0.8 6.36111e-15 -3.18055e-15 -1.27222e-14 1.13687e-13 -7.75 -0.2 -85.8449 -0.573908 13.1865 0 -3.8 -2.27374e-13 -19.0056 3.18055e-15 -0.0226293 0 -3.4 0 -90.0002 -4.77083e-15 -3.18055e-14 -0.75 -1.75 -1.85 6.36111e-15 -3.18055e-15 -1.27222e-14 -2.27374e-13 -7.15 -1 -89.9784 0.106718 17.0876 -1.13687e-13 -3 2.27374e-13 -67.9235 0.0227633 -0.0034381 -1.13687e-13 -2.35 0 -90.0002 4.77083e-14 -3.49861e-14 -5 17 0 11.1708 -7.39841 -2.05545 -6.45 0 -2.27374e-13 -0.955765 -0.21706 -4.17785 -6.45 0 0 -51.5049 -3.5367 -27.2203 -5.68434e-14 -32.4 -2 6.28128 -32.5787 28.6513 -5.68434e-14 -25.65 2 -32.784 3.50392 5.26981 0.5 -1.5 2.65 21.2223 1.30398 18.8085 1.13687e-13 -3.8 3.7 0.86067 3.43171 -0.418623 0 -3 2.7 0.185113 23.0156 0.00250108 -1.13687e-13 -1.9 1.6 2.38542e-15 1.59028e-15 -1.59028e-15 0 -8.3 1.9 1.34044 6.78842 -0.0888172 0 -4.5 -2.27374e-13 -1.21756e-14 3.97569e-16 1.59028e-15 -5.68434e-14 -3.4 0 -2.23633e-15 -3.97569e-16 -6.36111e-15 0.25 -2.2 0.4 2.38542e-15 1.59028e-15 -1.59028e-15 -5.68434e-14 -8.3 1 1.47182 4.58173 -0.0766707 -5.68434e-14 -4.65 2.27374e-13 6.2285 0.283593 0.0882811 0 -3.3 -4.54747e-13 4.87028 0.227675 0.0415128 0.5 -2.15 -0.8 2.38542e-15 1.59028e-15 -1.59028e-15 -5.68434e-14 -7.75 -0.2 2.01453 1.66083 -0.0727589 0 -3.8 0 10.4287 0.265689 0.0821759 5.68434e-14 -3.4 2.27374e-13 8.59438 0.215189 0.0325163 0.75 -1.75 -1.85 2.38542e-15 1.59028e-15 -1.59028e-15 5.68434e-14 -7.15 -1 1.8281 -1.84779 0.0394416 5.68434e-14 -3 -2.27374e-13 43.6784 0.216727 -0.0426542 0 -2.35 0 30.4847 0.104491 -0.0902384 8 0 0 5.58747 -42.521 10.5731 0 -45 -1 0.523031 38.8289 -1.86997 -2.84217e-14 -41 -2 -0.261975 0.759567 -6.85542 0 -7.5 12.5 1.98785e-16 -1.98785e-15 -1.59028e-15 -5.68434e-14 0 4 -2.78328 0.478234 -19.7907 -8 -1.42109e-14 0 -10.9141 -26.4182 -25.4364 0 -45 -1 -1.57109 44.9707 3.83912 1.13687e-13 -41 -2 -2.84166 0.453894 8.9938 -5.68434e-14 -7.5 12.5 -0 -17.7585 -0 0 0 4 8.59156 18.4151 20.793 
-268.627 89.4094 1563.51 0.00589076 -0.566021 170.13 5.68434e-14 8 0 8.18428 23.521 5.15643 0 8 2.27374e-13 3.57625 7.39239 2.55327 2.84217e-14 8 0 1.8281 3.68149 1.33373 2.84217e-14 8 2.27374e-13 1.82136 3.67082 1.33014 5.68434e-14 17 0 2.62843 -1.98483 -11.4942 -5.68434e-14 10.8 2.27374e-13 5.46462 -5.41831 -26.9255 5 17 -4.54747e-13 2.4925 -5.09068 -3.76448 6.45 2.27374e-13 6.82121e-13 0.100335 0.489459 2.26489 6.45 1.13687e-13 4.54747e-13 58.0226 26.5135 5.63917 0 -32.4 -2 -143.468 -40.9149 -126.467 -2.27374e-13 -25.65 2 23.8677 19.1822 -16.0012 -0.5 -1.5 2.65 -31.5699 -60.7374 116.808 5.68434e-14 -3.8 3.7 0.823547 24.0864 0.447358 5.68434e-14 -3 2.7 0.0694545 34.5516 0.285011 0 -1.9 1.6 6.36111e-15 -3.18055e-15 -7.95139e-15 1.13687e-13 -8.3 1.9 -1.93504 -1.64284 0.153964 -2.27374e-13 -4.5 0 -77.2157 0.00888782 -0.0324164 0 -3.4 1.13687e-13 -61.4514 0.0463556 -0.02522 -0.25 -2.2 0.4 6.36111e-15 -3.18055e-15 -7.95139e-15 -2.27374e-13 -8.3 1 -33.7887 12.9246 6.423 -2.27374e-13 -4.65 0 -74.319 0.064655 -0.0481624 0 -3.3 0 -90.0002 -1.59028e-14 1.27222e-14 -0.5 -2.15 -0.8 6.36111e-15 -3.18055e-15 -7.95139e-15 2.27374e-13 -7.75 -0.2 -85.6779 -0.986329 12.9669 -1.13687e-13 -3.8 0 -17.9407 3.18055e-15 -0.0390662 -1.13687e-13 -3.4 0 -90.0002 -3.49861e-14 4.45278e-14 -0.75 -1.75 -1.85 6.36111e-15 -3.18055e-15 -7.95139e-15 -1.13687e-13 -7.15 -1 -89.9743 0.14131 17.0553 0 -3 2.27374e-13 -67.8452 0.0187498 -0.0034381 -1.13687e-13 -2.35 0 -90.0002 -1.59028e-15 6.36111e-15 -5 17 -2.27374e-13 11.3299 -7.49877 -2.23517 -6.45 0 0 -0.969244 -0.188023 -4.22922 -6.45 -1.13687e-13 2.27374e-13 -50.8894 -2.53425 -26.9913 -2.84217e-14 -32.4 -2 6.14355 -33.0728 29.1947 -1.13687e-13 -25.65 2 -33.1748 3.45289 5.78111 0.5 -1.5 2.65 21.6608 0.321714 18.9636 0 -3.8 3.7 0.773083 5.39696 -0.352379 0 -3 2.7 0.152457 21.4568 -0.0115757 -5.68434e-14 -1.9 1.6 -5.56597e-15 -3.18055e-15 -3.18055e-15 0 -8.3 1.9 1.46788 6.77586 -0.100068 0 -4.5 0 -7.40473e-15 0 -1.59028e-15 -1.13687e-13 -3.4 0 -4.12478e-15 9.93923e-16 -3.18055e-15 0.25 -2.2 0.4 -5.56597e-15 -3.18055e-15 -3.18055e-15 -5.68434e-14 -8.3 1 1.70534 4.5361 -0.0901049 5.68434e-14 -4.65 0 9.78513 0.368477 0.0897642 -5.68434e-14 -3.3 0 7.51611 0.291075 0.0244899 0.5 -2.15 -0.8 -5.56597e-15 -3.18055e-15 -3.18055e-15 5.68434e-14 -7.75 -0.2 2.50279 1.58071 -0.0856157 0 -3.8 0 13.4246 0.269914 0.0669045 -5.68434e-14 -3.4 0 10.8966 0.20937 0.012629 0.75 -1.75 -1.85 -5.56597e-15 -3.18055e-15 -3.18055e-15 5.68434e-14 -7.15 -1 2.44612 -2.05569 0.0485044 5.68434e-14 -3 -2.27374e-13 46.3586 0.136537 -0.0356098 0 -2.35 -2.27374e-13 32.1466 0.0624315 -0.0651228 8 -1.42109e-14 -2.27374e-13 5.78072 -42.9926 10.8619 8.52651e-14 -45 -1 0.545946 39.2427 -1.91747 -5.68434e-14 -41 -2 -0.259057 0.810678 -7.88335 0 -7.5 12.5 -9.93923e-17 -1.98785e-15 3.18055e-15 0 0 4 -2.76487 0.460564 -19.7828 -8 0 2.27374e-13 -11.0152 -27.2234 -25.151 0 -45 -1 -1.73801 46.4178 4.12901 2.27374e-13 -41 -2 -2.78705 0.388721 8.85875 5.68434e-14 -7.5 12.5 -0 -18.2342 -0 -5.68434e-14 -4.44089e-16 4 8.09149 18.8353 20.8925 
-268.334 88.9874 1564.02 0.0850755 -0.479829 171.42 5.68434e-14 8 0 8.23682 23.0957 5.10633 0 8 -2.27374e-13 3.57048 7.34189 2.53276 0 8 4.54747e-13 1.82859 3.65626 1.323 -2.84217e-14 8 4.54747e-13 1.82213 3.64573 1.31946 5.68434e-14 17 0 2.68808 -1.99447 -11.583 -5.68434e-14 10.8 2.27374e-13 5.59379 -5.46552 -27.1342 5 17 -2.27374e-13 2.5372 -4.99459 -4.19337 6.45 1.13687e-13 4.54747e-13 0.0689493 0.468587 2.30113 6.45 1.13687e-13 2.27374e-13 58.0894 26.3338 6.55801 5.68434e-14 -32.4 -2 -145.151 -41.1934 -128.964 -2.27374e-13 -25.65 2 26.7276 19.6034 -19.4328 -0.5 -1.5 2.65 -29.7691 -59.1618 118.27 1.13687e-13 -3.8 3.7 0.714709 27.9771 0.341251 0 -3 2.7 0.0419945 35.4847 0.218566 0 -1.9 1.6 -4.41391e-31 -3.18055e-15 -7.95139e-15 1.13687e-13 -8.3 1.9 -1.9598 -1.37162 0.166869 0 -4.5 1.13687e-13 -76.9686 0.00888782 0.0183905 -2.27374e-13 -3.4 -1.13687e-13 -61.0392 -0.026108 0.0113565 -0.25 -2.2 0.4 -4.41391e-31 -3.18055e-15 -7.95139e-15 -1.13687e-13 -8.3 1 -34.1086 13.2167 6.60494 0 -4.65 0 -73.3152 0.0820669 -0.0534047 0 -3.3 0 -90.0002 3.18055e-14 -4.13472e-14 -0.5 -2.15 -0.8 -4.41391e-31 -3.18055e-15 -7.95139e-15 1.13687e-13 -7.75 -0.2 -85.4467 -1.49915 12.7113 1.13687e-13 -3.8 0 -16.7326 -6.36111e-15 -0.0446706 0 -3.4 2.27374e-13 -90.0002 1.90833e-14 -2.8625e-14 -0.75 -1.75 -1.85 -4.41391e-31 -3.18055e-15 -7.95139e-15 -1.13687e-13 -7.15 -1 -89.9645 0.192466 17.0125 0 -3 2.27374e-13 -67.7351 0.00786774 -0.0034381 -5.68434e-14 -2.35 -2.27374e-13 -90.0002 5.56597e-14 -3.18055e-14 -5 17 0 11.4966 -7.57007 -2.45578 -6.45 -1.13687e-13 2.27374e-13 -1.01344 -0.163284 -4.22396 -6.45 1.13687e-13 -2.27374e-13 -50.1868 -1.50602 -26.8216 -8.52651e-14 -32.4 -2 6.03292 -33.5853 29.7139 0 -25.65 2 -33.4438 3.3771 6.26323 0.5 -1.5 2.65 21.9941 -0.532553 19.1103 1.13687e-13 -3.8 3.7 0.707472 7.07003 -0.295003 0 -3 2.7 0.125596 20.2048 -0.0215605 -5.68434e-14 -1.9 1.6 3.18055e-15 0 -1.59028e-15 -5.68434e-14 -8.3 1.9 1.47445 6.82793 -0.107817 0 -4.5 -2.27374e-13 -9.93923e-16 -2.38542e-15 -1.59028e-15 -1.13687e-13 -3.4 0 -7.95139e-16 -4.37326e-15 -4.77083e-15 0.25 -2.2 0.4 3.18055e-15 0 -1.59028e-15 0 -8.3 1 1.83734 4.50461 -0.10277 0 -4.65 0 13.7004 0.403921 0.0917711 -5.68434e-14 -3.3 -2.27374e-13 10.3772 0.31473 0.00766089 0.5 -2.15 -0.8 3.18055e-15 0 -1.59028e-15 0 -7.75 -0.2 2.99923 1.83062 -0.119734 0 -3.8 0 16.579 0.221518 0.0262036 1.13687e-13 -3.4 2.27374e-13 13.2969 0.158648 -0.0158705 0.75 -1.75 -1.85 3.18055e-15 0 -1.59028e-15 0 -7.15 -1 3.05632 -2.23743 0.0552601 1.13687e-13 -3 -2.27374e-13 47.9897 0.0682324 -0.0201852 0 -2.35 0 33.1685 0.0304029 -0.0353036 8 1.42109e-14 0 5.91014 -43.4904 10.9848 0 -45 -1 0.567361 39.6797 -1.95779 2.84217e-14 -41 -2 -0.245084 0.838299 -8.78196 -5.68434e-14 -7.5 12.5 4.96962e-16 -3.97569e-16 3.18055e-15 0 0 4 -2.77432 0.452342 -19.7779 -8 1.42109e-14 2.27374e-13 -11.169 -28.0631 -24.8656 -1.13687e-13 -45 -1 -1.93633 47.9192 4.46542 5.68434e-14 -41 -2 -2.72791 0.28292 9.0461 2.84217e-14 -7.5 12.5 -2.80405e-16 -18.6836 -3.35749e-15 -2.84217e-14 -4.44089e-16 4 7.55218 19.1827 20.9715 
